<?xml version="1.0" encoding="UTF-8" standalone="no"?>
<svg
   xmlns:dc="http://purl.org/dc/elements/1.1/"
   xmlns:cc="http://creativecommons.org/ns#"
   xmlns:rdf="http://www.w3.org/1999/02/22-rdf-syntax-ns#"
   xmlns:svg="http://www.w3.org/2000/svg"
   xmlns="http://www.w3.org/2000/svg"
   viewBox="0 0 293.33334 94.666664"
   height="94.666664"
   width="293.33334"
   xml:space="preserve"
   id="svg2"
   version="1.1"><metadata
     id="metadata8"><rdf:RDF><cc:Work
         rdf:about=""><dc:format>image/svg+xml</dc:format><dc:type
           rdf:resource="http://purl.org/dc/dcmitype/StillImage" /></cc:Work></rdf:RDF></metadata><defs
     id="defs6"><clipPath
       id="clipPath18"
       clipPathUnits="userSpaceOnUse"><path
         id="path16"
         d="M 0,71 H 220 V 0 H 0 Z" /></clipPath></defs><g
     transform="matrix(1.3333333,0,0,-1.3333333,0,94.666667)"
     id="g10"><g
       id="g12"><g
         clip-path="url(#clipPath18)"
         id="g14"><g
           transform="translate(91.2207,45.798)"
           id="g20"><path
             id="path22"
             style="fill:#ffffff;fill-opacity:1;fill-rule:nonzero;stroke:none"
             d="m 0,0 c 0,-3.304 -0.646,-5.315 -2.119,-6.716 -1.149,-1.042 -2.801,-1.652 -4.489,-1.652 -2.155,0 -3.951,0.718 -5.603,2.262 l 2.801,3.412 c 0.611,-0.898 1.401,-1.365 2.335,-1.365 0.97,0 1.76,0.539 2.083,1.437 0.251,0.683 0.324,1.365 0.324,3.376 V 16.162 H 0 Z" /></g><g
           transform="translate(99.7319,45.798)"
           id="g24"><path
             id="path26"
             style="fill:#ffffff;fill-opacity:1;fill-rule:nonzero;stroke:none"
             d="m 0,0 c 0,-2.442 1.975,-4.382 4.381,-4.382 2.371,0 4.347,1.976 4.347,4.31 0,2.478 -1.904,4.418 -4.347,4.418 C 1.939,4.346 0,2.406 0,0 M 12.606,7.758 V -7.794 H 8.26 v 2.011 c -1.4,-1.759 -2.945,-2.513 -5.1,-2.513 -4.381,0 -7.65,3.555 -7.65,8.296 0,4.669 3.304,8.261 7.578,8.261 2.12,0 3.664,-0.755 5.172,-2.514 v 2.011 z" /></g><g
           transform="translate(120.8472,53.5558)"
           id="g28"><path
             id="path30"
             style="fill:#ffffff;fill-opacity:1;fill-rule:nonzero;stroke:none"
             d="m 0,0 v -1.796 c 1.437,1.652 2.838,2.299 4.741,2.299 2.155,0 3.664,-0.862 4.848,-2.837 1.222,1.903 2.91,2.837 5.101,2.837 1.868,0 3.52,-0.862 4.345,-2.227 0.575,-0.934 0.826,-2.047 0.826,-3.771 v -10.057 h -4.345 v 8.512 c 0,1.257 -0.072,1.832 -0.359,2.479 -0.395,0.862 -1.185,1.364 -2.191,1.364 -1.113,0 -2.083,-0.574 -2.55,-1.544 -0.323,-0.682 -0.467,-1.472 -0.467,-2.837 v -7.974 H 5.603 v 8.261 c 0,1.329 -0.072,2.011 -0.323,2.586 -0.359,0.898 -1.329,1.508 -2.335,1.508 -0.97,0 -2.011,-0.574 -2.442,-1.4 C 0.144,-5.244 0,-6.07 0,-7.578 v -7.974 H -4.346 V 0 Z" /></g><g
           transform="translate(156.0059,47.8454)"
           id="g32"><path
             id="path34"
             style="fill:#ffffff;fill-opacity:1;fill-rule:nonzero;stroke:none"
             d="M 0,0 C -0.467,2.011 -1.759,3.089 -3.699,3.089 -5.638,3.089 -6.967,1.939 -7.363,0 Z m -7.506,-2.766 c 0.108,-2.693 1.436,-4.166 3.807,-4.166 1.652,0 2.694,0.611 3.699,2.083 l 4.023,-0.646 c -1.329,-3.197 -3.951,-4.849 -7.614,-4.849 -5.064,0 -8.369,3.268 -8.369,8.261 0,5.028 3.197,8.296 8.153,8.296 4.957,0 7.974,-3.196 7.974,-8.404 v -0.575 z" /></g><g
           transform="translate(167.8198,53.5558)"
           id="g36"><path
             id="path38"
             style="fill:#ffffff;fill-opacity:1;fill-rule:nonzero;stroke:none"
             d="m 0,0 v -1.939 c 1.365,1.759 2.766,2.442 4.885,2.442 1.831,0 3.483,-0.683 4.525,-1.868 0.898,-1.041 1.221,-2.191 1.221,-4.31 v -9.877 H 6.285 v 8.62 c 0,1.293 -0.108,1.975 -0.431,2.515 -0.431,0.754 -1.4,1.22 -2.55,1.22 C 1.078,-3.197 0,-4.561 0,-7.506 v -8.046 H -4.346 V 0 Z" /></g><g
           transform="translate(186.2788,45.798)"
           id="g40"><path
             id="path42"
             style="fill:#ffffff;fill-opacity:1;fill-rule:nonzero;stroke:none"
             d="m 0,0 c 0,-2.442 1.975,-4.382 4.381,-4.382 2.37,0 4.346,1.976 4.346,4.31 0,2.478 -1.903,4.418 -4.346,4.418 C 1.939,4.346 0,2.406 0,0 M 12.606,19.107 V -7.794 H 8.26 v 2.011 c -1.401,-1.759 -2.945,-2.513 -5.1,-2.513 -4.382,0 -7.65,3.555 -7.65,8.296 0,4.669 3.304,8.261 7.578,8.261 2.12,0 3.663,-0.755 5.172,-2.514 v 13.36 z" /></g><g
           transform="translate(206.7109,45.8337)"
           id="g44"><path
             id="path46"
             style="fill:#ffffff;fill-opacity:1;fill-rule:nonzero;stroke:none"
             d="m 0,0 c 0,-2.478 1.94,-4.417 4.418,-4.417 2.406,0 4.382,1.939 4.382,4.345 C 8.8,2.371 6.824,4.31 4.382,4.31 2.012,4.31 0,2.335 0,0 m 13.289,-0.036 c 0,-4.921 -3.663,-8.296 -8.979,-8.296 -5.207,0 -8.799,3.412 -8.799,8.404 0,4.741 3.735,8.153 8.943,8.153 5.208,0 8.835,-3.376 8.835,-8.261" /></g><g
           transform="translate(118.4297,29.5041)"
           id="g48"><path
             id="path50"
             style="fill:#ffffff;fill-opacity:1;fill-rule:nonzero;stroke:none"
             d="M 0,0 H 2.692 L 8.199,-13.19 13.916,0 h 2.723 l 3.358,-20.542 H 16.034 L 14.219,-8.108 8.682,-20.814 H 7.593 L 2.239,-8.108 0.211,-20.542 h -3.962 z" /></g><g
           transform="translate(145.1118,14.6501)"
           id="g52"><path
             id="path54"
             style="fill:#ffffff;fill-opacity:1;fill-rule:nonzero;stroke:none"
             d="m 0,0 c 0,-1.967 0.908,-2.996 2.693,-2.996 1.754,0 2.662,1.029 2.662,2.996 v 7.412 h 3.66 v -8.017 c 0,-3.54 -2.268,-5.507 -6.322,-5.507 -4.085,0 -6.353,1.967 -6.353,5.507 V 7.412 H 0 Z" /></g><g
           transform="translate(164.8062,19.006)"
           id="g56"><path
             id="path58"
             style="fill:#ffffff;fill-opacity:1;fill-rule:nonzero;stroke:none"
             d="m 0,0 c -0.787,0.605 -1.453,0.877 -2.179,0.877 -0.817,0 -1.422,-0.483 -1.422,-1.119 0,-0.605 0.394,-0.877 2.088,-1.452 1.483,-0.514 1.936,-0.726 2.542,-1.18 0.968,-0.666 1.451,-1.664 1.451,-2.904 0,-2.753 -2.268,-4.69 -5.505,-4.69 -1.907,0 -3.691,0.787 -4.962,2.179 l 1.906,2.238 c 1.059,-1.058 2.027,-1.543 3.116,-1.543 0.938,0 1.664,0.636 1.664,1.453 0,0.756 -0.364,1.029 -2.027,1.633 -1.633,0.605 -1.936,0.727 -2.511,1.15 -0.877,0.605 -1.301,1.513 -1.301,2.723 0,2.45 1.936,4.175 4.69,4.175 1.633,0 2.994,-0.454 4.265,-1.392 z" /></g><path
           id="path60"
           style="fill:#ffffff;fill-opacity:1;fill-rule:nonzero;stroke:none"
           d="m 173.488,8.962 h -3.66 v 13.1 h 3.66 z m 0.393,18.636 c 0,-1.21 -0.998,-2.209 -2.208,-2.209 -1.24,0 -2.209,0.999 -2.209,2.24 0,1.179 0.999,2.177 2.209,2.177 1.24,0 2.208,-0.968 2.208,-2.208" /><g
           transform="translate(186.7686,18.0685)"
           id="g62"><path
             id="path64"
             style="fill:#ffffff;fill-opacity:1;fill-rule:nonzero;stroke:none"
             d="m 0,0 c -1.059,0.817 -1.876,1.119 -2.965,1.119 -2.178,0 -3.782,-1.573 -3.782,-3.691 0,-2.117 1.604,-3.66 3.782,-3.66 1.12,0 1.966,0.302 2.965,1.089 v -3.57 c -1.18,-0.605 -2.148,-0.817 -3.358,-0.817 -4.055,0 -7.17,2.995 -7.17,6.898 0,3.993 3.115,7.049 7.2,7.049 1.301,0 2.269,-0.243 3.328,-0.787 z" /></g><g
           transform="translate(30.7241,70.9772)"
           id="g66"><path
             id="path68"
             style="fill:#ffffff;fill-opacity:1;fill-rule:nonzero;stroke:none"
             d="M 0,0 -30.724,-17.738 V -53.216 L 0,-70.955 30.725,-53.216 v 35.478 z M 0,-5.125 26.287,-20.301 V -50.654 L 0,-65.83 -26.286,-50.654 v 30.353 z" /></g><g
           transform="translate(23.6104,25.1423)"
           id="g70"><path
             id="path72"
             style="fill:#ffffff;fill-opacity:1;fill-rule:nonzero;stroke:none"
             d="M 0,0 H -4.313 L 5.999,20.716 h 4.313 z" /></g><g
           transform="translate(40.0581,25.1423)"
           id="g74"><path
             id="path76"
             style="fill:#ffffff;fill-opacity:1;fill-rule:nonzero;stroke:none"
             d="M 0,0 H -4.313 L 5.999,20.716 h 4.313 z" /></g><g
           transform="translate(15.3921,25.1423)"
           id="g78"><path
             id="path80"
             style="fill:#ffffff;fill-opacity:1;fill-rule:nonzero;stroke:none"
             d="M 0,0 H -4.313 L 0.843,10.358 H 5.156 Z" /></g><g
           transform="translate(36.9927,35.4982)"
           id="g82"><path
             id="path84"
             style="fill:#ffffff;fill-opacity:1;fill-rule:nonzero;stroke:none"
             d="M 0,0 H -4.313 L 0.843,10.358 H 5.156 Z" /></g></g></g></g></svg>