<?xml version="1.0" encoding="UTF-8"?>
<svg width="125px" height="55px" viewBox="0 0 125 55" version="1.1" xmlns="http://www.w3.org/2000/svg" xmlns:xlink="http://www.w3.org/1999/xlink">
    <!-- Generator: Sketch 48.2 (47327) - http://www.bohemiancoding.com/sketch -->
    <title>logo/primary</title>
    <desc>Created with Sketch.</desc>
    <defs>
        <path d="M125,1.875 L125,40.625 C125,41.660625 124.16,42.5 123.125,42.5 L80,42.5 L80,53.125 C80,54.160625 79.160625,55 78.125,55 L1.875,55 C0.839375,55 0,54.160625 0,53.125 L0,14.375 C0,13.34 0.839375,12.5 1.875,12.5 L76.25,12.5 L76.25,1.875 C76.25,0.839375 77.09,0 78.125,0 L123.125,0 C124.16,0 125,0.839375 125,1.875 Z M112.6475,13 C112.6475,12.724375 112.4225,12.5 112.148125,12.5 L109.648125,12.5 C109.373125,12.5 109.148125,12.724375 109.148125,13 L109.148125,22.398125 C109.148125,22.548125 108.973125,22.598125 108.923125,22.448125 L105.49875,12.95 C105.42375,12.724375 105.24875,12.5 104.87375,12.5 L101.899375,12.5 C101.625,12.5 101.399375,12.724375 101.399375,13 L101.399375,29.496875 C101.399375,29.771875 101.625,29.996875 101.899375,29.996875 L104.39875,29.996875 C104.674375,29.996875 104.89875,29.771875 104.89875,29.496875 L104.89875,20.848125 C104.89875,20.698125 105.07375,20.64875 105.12375,20.798125 L108.52375,29.571875 C108.598125,29.771875 108.773125,29.996875 109.198125,29.996875 L112.148125,29.996875 C112.4225,29.996875 112.6475,29.771875 112.6475,29.496875 L112.6475,13 Z M98.623125,27.121875 C98.623125,26.8475 98.39875,26.6225 98.123125,26.6225 L95.99875,26.6225 C95.84875,26.6225 95.74875,26.523125 95.74875,26.3725 L95.74875,16.124375 C95.74875,15.974375 95.84875,15.87375 95.99875,15.87375 L97.87375,15.87375 C98.148125,15.87375 98.373125,15.649375 98.373125,15.374375 L98.373125,13 C98.373125,12.724375 98.148125,12.5 97.87375,12.5 L90.125,12.5 C89.85,12.5 89.624375,12.724375 89.624375,13 L89.624375,15.374375 C89.624375,15.649375 89.85,15.87375 90.125,15.87375 L91.999375,15.87375 C92.149375,15.87375 92.249375,15.974375 92.249375,16.124375 L92.249375,26.3725 C92.249375,26.523125 92.149375,26.6225 91.999375,26.6225 L89.875,26.6225 C89.6,26.6225 89.375,26.8475 89.375,27.121875 L89.375,29.496875 C89.375,29.771875 89.6,29.996875 89.875,29.996875 L98.123125,29.996875 C98.39875,29.996875 98.623125,29.771875 98.623125,29.496875 L98.623125,27.121875 Z M76.25,16.25 L4.0625,16.25 C3.89,16.25 3.75,16.390625 3.75,16.5625 L3.75,50.9375 C3.75,51.11 3.89,51.25 4.0625,51.25 L75.9375,51.25 C76.11,51.25 76.25,51.11 76.25,50.9375 L76.25,16.25 Z M65.171875,38.9975 C65.446875,38.9975 65.671875,39.2225 65.671875,39.4975 L65.671875,41.996875 C65.671875,42.271875 65.446875,42.496875 65.171875,42.496875 L55.99875,42.496875 C55.72375,42.496875 55.49875,42.271875 55.49875,41.996875 L55.49875,25.5 C55.49875,25.224375 55.72375,25 55.99875,25 L65.071875,25 C65.346875,25 65.571875,25.224375 65.571875,25.5 L65.571875,27.999375 C65.571875,28.274375 65.346875,28.499375 65.071875,28.499375 L59.248125,28.499375 C59.098125,28.499375 58.9975,28.599375 58.9975,28.749375 L58.9975,31.74875 C58.9975,31.89875 59.098125,31.99875 59.248125,31.99875 L64.871875,31.99875 C65.146875,31.99875 65.371875,32.22375 65.371875,32.49875 L65.371875,34.998125 C65.371875,35.27375 65.146875,35.498125 64.871875,35.498125 L59.248125,35.498125 C59.098125,35.498125 58.9975,35.598125 58.9975,35.748125 L58.9975,38.7475 C58.9975,38.8975 59.098125,38.9975 59.248125,38.9975 L65.171875,38.9975 Z M52.2225,25 C52.496875,25 52.721875,25.224375 52.721875,25.5 L52.721875,41.996875 C52.721875,42.271875 52.496875,42.496875 52.2225,42.496875 L49.2725,42.496875 C48.8475,42.496875 48.6725,42.271875 48.598125,42.071875 L45.198125,33.298125 C45.148125,33.14875 44.973125,33.198125 44.973125,33.348125 L44.973125,41.996875 C44.973125,42.271875 44.74875,42.496875 44.473125,42.496875 L41.97375,42.496875 C41.699375,42.496875 41.47375,42.271875 41.47375,41.996875 L41.47375,25.5 C41.47375,25.224375 41.699375,25 41.97375,25 L44.948125,25 C45.32375,25 45.498125,25.224375 45.573125,25.45 L48.9975,34.948125 C49.048125,35.098125 49.2225,35.048125 49.2225,34.898125 L49.2225,25.5 C49.2225,25.224375 49.4475,25 49.7225,25 L52.2225,25 Z M38.1225,25 C38.398125,25 38.6225,25.224375 38.6225,25.5 L38.6225,37.248125 C38.6225,40.2725 36.123125,42.771875 32.673125,42.771875 C29.274375,42.771875 26.774375,40.2725 26.774375,37.248125 L26.774375,25.5 C26.774375,25.224375 26.999375,25 27.275,25 L29.799375,25 C30.07375,25 30.299375,25.224375 30.299375,25.5 L30.299375,37.248125 C30.299375,38.3475 31.19875,39.2475 32.673125,39.2475 C34.19875,39.2475 35.098125,38.3475 35.098125,37.248125 L35.098125,25.5 C35.098125,25.224375 35.323125,25 35.598125,25 L38.1225,25 Z M24.373125,25.5 L24.373125,27.999375 C24.373125,28.274375 24.148125,28.499375 23.873125,28.499375 L20.74875,28.499375 C20.59875,28.499375 20.49875,28.599375 20.49875,28.749375 L20.49875,41.996875 C20.49875,42.271875 20.273125,42.496875 19.99875,42.496875 L17.499375,42.496875 C17.224375,42.496875 16.999375,42.271875 16.999375,41.996875 L16.999375,28.749375 C16.999375,28.599375 16.899375,28.499375 16.749375,28.499375 L13.625,28.499375 C13.349375,28.499375 13.125,28.274375 13.125,27.999375 L13.125,25.5 C13.125,25.224375 13.349375,25 13.625,25 L23.873125,25 C24.148125,25 24.373125,25.224375 24.373125,25.5 Z" id="path-1"></path>
    </defs>
    <g id="nav/md/default" stroke="none" stroke-width="1" fill="none" fill-rule="evenodd" transform="translate(-32.000000, -32.000000)">
        <g id="logo/primary" transform="translate(32.000000, 32.000000)">
            <mask id="mask-2" fill="white">
                <use xlink:href="#path-1"></use>
            </mask>
            <g id="logo"></g>
            <g id="color/tsharp" mask="url(#mask-2)" fill="#14D8CC" fill-rule="evenodd">
                <rect id="Rectangle" x="0" y="0" width="125" height="55"></rect>
            </g>
        </g>
    </g>
</svg>